<svg width="160" height="44" viewBox="0 0 160 44" fill="none" xmlns="http://www.w3.org/2000/svg">
<g clip-path="url(#clip0_446_10739)">
<path d="M39.9769 36.1684C38.1485 36.1684 36.6569 35.7755 35.5021 34.9895C34.3633 34.1876 33.7939 33.0569 33.7939 31.5973C33.7939 31.453 33.81 31.2364 33.842 30.9477H38.1244C38.0763 31.5572 38.2207 32.0384 38.5575 32.3912C38.8943 32.7441 39.4076 32.9205 40.0972 32.9205C40.7228 32.9205 41.2119 32.7842 41.5648 32.5115C41.9337 32.2389 42.1181 31.8539 42.1181 31.3567C42.1181 30.8435 41.8856 30.4265 41.4205 30.1057C40.9714 29.7849 40.2656 29.424 39.3033 29.0231C38.3731 28.6381 37.6112 28.2772 37.0178 27.9404C36.4404 27.5876 35.9351 27.1144 35.5021 26.521C35.069 25.9275 34.8525 25.1817 34.8525 24.2835C34.8365 23.1769 35.1091 22.2145 35.6705 21.3965C36.2318 20.5785 37.0097 19.953 38.0042 19.52C38.9986 19.0869 40.1373 18.8704 41.4205 18.8704C42.5753 18.8704 43.6018 19.0548 44.4999 19.4237C45.3981 19.7766 46.0958 20.2979 46.593 20.9875C47.0902 21.6612 47.3388 22.4631 47.3388 23.3934C47.3388 23.634 47.3308 23.8104 47.3148 23.9227H42.9361C42.9522 23.8585 42.9602 23.7623 42.9602 23.634C42.9602 23.1849 42.7998 22.824 42.479 22.5513C42.1743 22.2626 41.7493 22.1183 41.2039 22.1183C40.6265 22.1183 40.1534 22.2626 39.7845 22.5513C39.4316 22.824 39.2552 23.2009 39.2552 23.6821C39.2552 24.1633 39.4797 24.5722 39.9288 24.9091C40.3779 25.2298 41.0756 25.6068 42.0219 26.0398C42.9682 26.4729 43.7381 26.8738 44.3315 27.2427C44.941 27.6116 45.4623 28.1088 45.8953 28.7344C46.3284 29.3438 46.5449 30.0977 46.5449 30.9958C46.5449 31.9903 46.2803 32.8804 45.751 33.6663C45.2217 34.4522 44.4598 35.0697 43.4654 35.5188C42.471 35.9519 41.3082 36.1684 39.9769 36.1684ZM53.8122 31.3808C53.7962 31.461 53.7882 31.5652 53.7882 31.6935C53.7882 31.9822 53.8684 32.1907 54.0288 32.3191C54.2052 32.4474 54.4859 32.5115 54.8708 32.5115H56.3384L55.7129 36H53.6198C50.9252 36 49.578 34.8693 49.578 32.6078C49.578 32.2709 49.618 31.8459 49.6982 31.3327L50.6606 25.9917H49.0246L49.6261 22.5754H51.262L51.8394 19.3034H55.9534L55.376 22.5754H58.0706L57.4691 25.9917H54.7746L53.8122 31.3808ZM64.1393 36.1925C62.9845 36.1925 61.958 35.9599 61.0598 35.4948C60.1617 35.0296 59.464 34.372 58.9668 33.522C58.4856 32.6719 58.245 31.6855 58.245 30.5628C58.245 29.0391 58.6059 27.6517 59.3276 26.4007C60.0494 25.1496 61.0438 24.1713 62.3109 23.4656C63.578 22.7438 64.9894 22.3829 66.5452 22.3829C67.7 22.3829 68.7265 22.6235 69.6246 23.1047C70.5389 23.5698 71.2446 24.2274 71.7418 25.0775C72.239 25.9275 72.4876 26.9139 72.4876 28.0367C72.4876 29.5764 72.1187 30.9718 71.3809 32.2228C70.6592 33.4578 69.6567 34.4282 68.3736 35.1339C67.1065 35.8396 65.6951 36.1925 64.1393 36.1925ZM64.7167 32.6559C65.3904 32.6559 65.9918 32.4554 66.5211 32.0544C67.0664 31.6374 67.4834 31.1081 67.7721 30.4666C68.0769 29.809 68.2293 29.1273 68.2293 28.4216C68.2293 27.6196 68.0127 27.0021 67.5797 26.5691C67.1466 26.136 66.6013 25.9195 65.9437 25.9195C65.254 25.9195 64.6445 26.128 64.1153 26.545C63.602 26.946 63.201 27.4753 62.9123 28.1329C62.6236 28.7905 62.4793 29.4802 62.4793 30.2019C62.4793 30.9878 62.6878 31.5973 63.1048 32.0304C63.5218 32.4474 64.0591 32.6559 64.7167 32.6559ZM79.3615 25.0053C79.9871 24.2033 80.7008 23.5778 81.5027 23.1287C82.3207 22.6636 83.1708 22.431 84.0529 22.431L83.2831 26.7856H82.1523C81.1258 26.7856 80.3159 27.0102 79.7224 27.4593C79.129 27.8923 78.736 28.6622 78.5436 29.7689L77.4369 36H73.3229L75.6806 22.5754H79.7946L79.3615 25.0053ZM91.9858 22.3829C93.718 22.3829 95.0894 22.8561 96.0998 23.8024C97.1263 24.7326 97.6396 26.0077 97.6396 27.6277C97.6396 28.157 97.5995 28.6301 97.5193 29.0471C97.4551 29.416 97.3589 29.809 97.2306 30.226H87.92C87.9039 30.3222 87.8959 30.4746 87.8959 30.6831C87.8959 31.3888 88.0884 31.9261 88.4733 32.295C88.8582 32.6639 89.3715 32.8483 90.013 32.8483C91.0395 32.8483 91.8254 32.4153 92.3708 31.5492H96.7494C96.172 32.9125 95.2337 34.0272 93.9346 34.8933C92.6354 35.7594 91.1759 36.1925 89.5559 36.1925C87.8237 36.1925 86.4363 35.7113 85.3938 34.749C84.3673 33.7866 83.8541 32.4794 83.8541 30.8274C83.8541 30.3302 83.9022 29.817 83.9984 29.2877C84.239 27.8923 84.7362 26.6733 85.4901 25.6308C86.2439 24.5883 87.1822 23.7863 88.3049 23.225C89.4276 22.6636 90.6546 22.3829 91.9858 22.3829ZM93.4775 28.1329C93.5095 27.9083 93.5256 27.756 93.5256 27.6758C93.5256 27.0342 93.3251 26.545 92.9241 26.2082C92.5231 25.8554 91.9938 25.6789 91.3363 25.6789C90.6305 25.6789 90.005 25.8955 89.4597 26.3285C88.9304 26.7455 88.5455 27.347 88.3049 28.1329H93.4775Z" fill="white"/>
<path d="M40.9438 8.72835C40.9438 7.93063 40.4836 7.40905 39.5018 7.40905H37.8756V10.0783H39.5018C40.4836 10.0783 40.9438 9.57209 40.9438 8.72835ZM35.2524 5.23066H39.6552C42.2938 5.23066 43.6131 6.74939 43.6131 8.62097C43.6131 9.97095 42.8767 11.2442 41.2199 11.7351L43.7051 15.9999H40.7444L38.5046 11.9346H37.8756V15.9999H35.2524V5.23066ZM49.0337 9.41869C48.1746 9.41869 47.5149 9.94027 47.3615 10.8914H50.6444C50.6444 9.95561 49.9081 9.41869 49.0337 9.41869ZM53.1296 13.1618C52.7154 14.834 51.1967 16.1226 49.0643 16.1226C46.5484 16.1226 44.7382 14.4351 44.7382 11.7198C44.7382 9.00449 46.5178 7.317 49.0643 7.317C51.5649 7.317 53.3291 8.9738 53.3291 11.5817C53.3291 11.8272 53.3137 12.088 53.283 12.3488H47.3462C47.4382 13.4687 48.1285 13.9902 48.9723 13.9902C49.7086 13.9902 50.1228 13.6221 50.3376 13.1618H53.1296ZM60.6192 15.9999V11.3516C60.6192 10.1857 59.9749 9.54141 58.9777 9.54141C57.9806 9.54141 57.3362 10.1857 57.3362 11.3516V15.9999H54.713V7.43973H57.3362V8.57494C57.8578 7.85393 58.7783 7.34768 59.9288 7.34768C61.9078 7.34768 63.2271 8.69767 63.2271 10.9988V15.9999H60.6192ZM70.9562 15.9999V11.3516C70.9562 10.1857 70.3119 9.54141 69.3148 9.54141C68.3176 9.54141 67.6733 10.1857 67.6733 11.3516V15.9999H65.05V7.43973H67.6733V8.57494C68.1949 7.85393 69.1153 7.34768 70.2659 7.34768C72.2448 7.34768 73.5641 8.69767 73.5641 10.9988V15.9999H70.9562ZM83.7631 11.7198C83.7631 14.4351 81.7995 16.1226 79.2836 16.1226C76.7677 16.1226 74.8655 14.4351 74.8655 11.7198C74.8655 9.00449 76.8138 7.317 79.3143 7.317C81.8302 7.317 83.7631 9.00449 83.7631 11.7198ZM77.5348 11.7198C77.5348 13.1618 78.3325 13.8522 79.2836 13.8522C80.2194 13.8522 81.0938 13.1618 81.0938 11.7198C81.0938 10.2624 80.2347 9.58744 79.3143 9.58744C78.3632 9.58744 77.5348 10.2624 77.5348 11.7198Z" fill="white"/>
<path d="M27.727 15.2913C27.788 13.6663 26.6426 12.2459 25.042 11.9618L9.17941 9.1363C7.57879 8.85222 6.01178 9.78998 5.50777 11.3356L0.162217 27.7266C-0.451758 29.6082 0.739537 31.5998 2.68837 31.945L6.22255 32.5743C6.24088 32.5376 6.2592 32.501 6.28364 32.4643L7.26111 31.0409C7.52687 30.6529 7.42912 30.1245 7.04118 29.8587L5.98124 29.1317C5.45279 28.7682 5.50166 27.9771 6.06676 27.6777L12.0721 24.504C12.68 24.1833 13.3978 24.6751 13.3153 25.3593L12.5028 32.1039C12.4264 32.7392 11.7025 33.0661 11.1771 32.7026L10.1172 31.9756C9.72923 31.7098 9.20079 31.8076 8.93504 32.1955L8.40659 32.9653L23.2581 35.6105C25.2069 35.9588 27.0122 34.5017 27.0885 32.5223L27.7331 15.2913H27.727ZM14.4883 13.3394C14.4211 13.7121 14.0637 13.9626 13.6911 13.8954C13.3184 13.8282 13.0679 13.4708 13.1351 13.0981C13.2023 12.7255 13.5597 12.475 13.9324 12.5422C14.305 12.6094 14.5555 12.9668 14.4883 13.3394ZM19.9591 14.3139C19.8919 14.6865 19.5345 14.937 19.1618 14.8698C18.7892 14.8026 18.5387 14.4452 18.6059 14.0725C18.6731 13.6999 19.0305 13.4494 19.4032 13.5166C19.7758 13.5838 20.0263 13.9412 19.9591 14.3139Z" fill="white"/>
<path d="M20.8052 10.3428L19.1801 10.0526L19.4825 8.36036C19.7635 6.79029 18.9754 5.33325 17.7292 5.11026C17.1518 5.0064 16.5531 5.18662 16.04 5.61732C15.484 6.08162 15.1022 6.76891 14.9617 7.557L14.6593 9.24925L13.0342 8.95906L13.3366 7.26681C13.5444 6.0969 14.1278 5.06139 14.98 4.34966C15.875 3.60129 16.9533 3.29583 18.0163 3.48521C20.1576 3.86704 21.5444 6.18243 21.1045 8.65054L20.8021 10.3428H20.8052Z" fill="white"/>
</g>
<defs>
<clipPath id="clip0_446_10739">
<rect width="160" height="44" fill="white"/>
</clipPath>
</defs>
</svg>
